<svg xmlns="http://www.w3.org/2000/svg" xmlns:xlink="http://www.w3.org/1999/xlink" width="1080" zoomAndPan="magnify" viewBox="0 0 810 1012.49997" height="1350" preserveAspectRatio="xMidYMid meet" version="1.0"><defs><clipPath id="6bd1fd69ab"><path d="M 81.160156 182.160156 L 728.839844 182.160156 L 728.839844 829.839844 L 81.160156 829.839844 Z M 81.160156 182.160156 " clip-rule="nonzero"/></clipPath><clipPath id="8b3f44a48f"><path d="M 81.160156 182.160156 L 728.839844 182.160156 L 728.839844 829.839844 L 81.160156 829.839844 Z M 81.160156 182.160156 " clip-rule="nonzero"/></clipPath></defs><g clip-path="url(#6bd1fd69ab)"><path fill="#000000" d="M 728.839844 506 C 728.839844 511.300781 728.710938 516.597656 728.449219 521.890625 C 728.191406 527.183594 727.800781 532.46875 727.28125 537.742188 C 726.761719 543.015625 726.113281 548.273438 725.335938 553.515625 C 724.558594 558.757812 723.652344 563.980469 722.617188 569.179688 C 721.582031 574.375 720.421875 579.546875 719.136719 584.6875 C 717.847656 589.828125 716.433594 594.933594 714.894531 600.003906 C 713.355469 605.078125 711.695312 610.109375 709.910156 615.097656 C 708.125 620.089844 706.21875 625.03125 704.1875 629.929688 C 702.160156 634.824219 700.015625 639.667969 697.746094 644.460938 C 695.480469 649.25 693.101562 653.984375 690.601562 658.65625 C 688.101562 663.332031 685.492188 667.941406 682.765625 672.488281 C 680.042969 677.03125 677.207031 681.507812 674.261719 685.914062 C 671.320312 690.324219 668.269531 694.65625 665.109375 698.910156 C 661.953125 703.167969 658.695312 707.34375 655.332031 711.441406 C 651.96875 715.539062 648.507812 719.550781 644.949219 723.476562 C 641.390625 727.40625 637.738281 731.242188 633.988281 734.988281 C 630.242188 738.738281 626.40625 742.390625 622.476562 745.949219 C 618.550781 749.507812 614.539062 752.96875 610.441406 756.332031 C 606.34375 759.695312 602.167969 762.953125 597.910156 766.109375 C 593.652344 769.269531 589.324219 772.320312 584.914062 775.261719 C 580.507812 778.207031 576.03125 781.042969 571.488281 783.765625 C 566.941406 786.492188 562.332031 789.101562 557.65625 791.601562 C 552.984375 794.101562 548.25 796.480469 543.460938 798.746094 C 538.667969 801.015625 533.824219 803.160156 528.929688 805.1875 C 524.03125 807.21875 519.089844 809.125 514.097656 810.910156 C 509.109375 812.695312 504.078125 814.355469 499.003906 815.894531 C 493.933594 817.433594 488.828125 818.847656 483.6875 820.136719 C 478.546875 821.421875 473.375 822.582031 468.179688 823.617188 C 462.980469 824.652344 457.757812 825.558594 452.515625 826.335938 C 447.273438 827.113281 442.015625 827.761719 436.742188 828.28125 C 431.46875 828.800781 426.183594 829.191406 420.890625 829.449219 C 415.597656 829.710938 410.300781 829.839844 405 829.839844 C 399.699219 829.839844 394.402344 829.710938 389.109375 829.449219 C 383.816406 829.191406 378.53125 828.800781 373.257812 828.28125 C 367.984375 827.761719 362.726562 827.113281 357.484375 826.335938 C 352.238281 825.558594 347.019531 824.652344 341.820312 823.617188 C 336.625 822.582031 331.453125 821.421875 326.3125 820.136719 C 321.171875 818.847656 316.066406 817.433594 310.996094 815.894531 C 305.921875 814.355469 300.890625 812.695312 295.902344 810.910156 C 290.910156 809.125 285.96875 807.21875 281.070312 805.1875 C 276.175781 803.160156 271.332031 801.015625 266.539062 798.746094 C 261.75 796.480469 257.015625 794.101562 252.34375 791.601562 C 247.667969 789.101562 243.058594 786.492188 238.511719 783.765625 C 233.96875 781.042969 229.492188 778.207031 225.085938 775.261719 C 220.675781 772.320312 216.34375 769.269531 212.089844 766.109375 C 207.832031 762.953125 203.65625 759.695312 199.558594 756.332031 C 195.460938 752.96875 191.449219 749.507812 187.523438 745.949219 C 183.59375 742.390625 179.757812 738.738281 176.011719 734.988281 C 172.261719 731.242188 168.609375 727.40625 165.050781 723.476562 C 161.492188 719.550781 158.03125 715.539062 154.667969 711.441406 C 151.304688 707.34375 148.046875 703.167969 144.890625 698.910156 C 141.730469 694.65625 138.679688 690.324219 135.738281 685.914062 C 132.792969 681.507812 129.957031 677.03125 127.234375 672.488281 C 124.507812 667.941406 121.898438 663.332031 119.398438 658.65625 C 116.898438 653.984375 114.519531 649.25 112.253906 644.460938 C 109.984375 639.667969 107.839844 634.824219 105.8125 629.929688 C 103.78125 625.03125 101.875 620.089844 100.089844 615.097656 C 98.304688 610.109375 96.644531 605.078125 95.105469 600.003906 C 93.566406 594.933594 92.152344 589.828125 90.863281 584.6875 C 89.578125 579.546875 88.417969 574.375 87.382812 569.179688 C 86.347656 563.980469 85.441406 558.757812 84.664062 553.515625 C 83.886719 548.273438 83.238281 543.015625 82.71875 537.742188 C 82.199219 532.46875 81.808594 527.183594 81.550781 521.890625 C 81.289062 516.597656 81.160156 511.300781 81.160156 506 C 81.160156 500.699219 81.289062 495.402344 81.550781 490.109375 C 81.808594 484.816406 82.199219 479.53125 82.71875 474.257812 C 83.238281 468.984375 83.886719 463.726562 84.664062 458.484375 C 85.441406 453.242188 86.347656 448.019531 87.382812 442.820312 C 88.417969 437.625 89.578125 432.453125 90.863281 427.3125 C 92.152344 422.171875 93.566406 417.066406 95.105469 411.996094 C 96.644531 406.921875 98.304688 401.890625 100.089844 396.902344 C 101.875 391.910156 103.78125 386.96875 105.8125 382.070312 C 107.839844 377.175781 109.984375 372.332031 112.253906 367.539062 C 114.519531 362.75 116.898438 358.015625 119.398438 353.34375 C 121.898438 348.667969 124.507812 344.058594 127.234375 339.511719 C 129.957031 334.96875 132.792969 330.492188 135.738281 326.085938 C 138.679688 321.675781 141.730469 317.34375 144.890625 313.089844 C 148.046875 308.832031 151.304688 304.65625 154.667969 300.558594 C 158.03125 296.460938 161.492188 292.449219 165.050781 288.523438 C 168.609375 284.59375 172.261719 280.757812 176.011719 277.011719 C 179.757812 273.261719 183.59375 269.609375 187.523438 266.050781 C 191.449219 262.492188 195.460938 259.03125 199.558594 255.667969 C 203.65625 252.304688 207.832031 249.046875 212.089844 245.890625 C 216.34375 242.730469 220.675781 239.679688 225.085938 236.738281 C 229.492188 233.792969 233.96875 230.957031 238.511719 228.234375 C 243.058594 225.507812 247.667969 222.898438 252.34375 220.398438 C 257.015625 217.898438 261.75 215.519531 266.539062 213.253906 C 271.332031 210.984375 276.175781 208.839844 281.070312 206.8125 C 285.96875 204.78125 290.910156 202.875 295.902344 201.089844 C 300.890625 199.304688 305.921875 197.644531 310.996094 196.105469 C 316.066406 194.566406 321.171875 193.152344 326.3125 191.863281 C 331.453125 190.578125 336.625 189.417969 341.820312 188.382812 C 347.019531 187.347656 352.238281 186.441406 357.484375 185.664062 C 362.726562 184.886719 367.984375 184.238281 373.257812 183.71875 C 378.53125 183.199219 383.816406 182.808594 389.109375 182.550781 C 394.402344 182.289062 399.699219 182.160156 405 182.160156 C 410.300781 182.160156 415.597656 182.289062 420.890625 182.550781 C 426.183594 182.808594 431.46875 183.199219 436.742188 183.71875 C 442.015625 184.238281 447.273438 184.886719 452.515625 185.664062 C 457.757812 186.441406 462.980469 187.347656 468.179688 188.382812 C 473.375 189.417969 478.546875 190.578125 483.6875 191.863281 C 488.828125 193.152344 493.933594 194.566406 499.003906 196.105469 C 504.078125 197.644531 509.109375 199.304688 514.097656 201.089844 C 519.089844 202.875 524.03125 204.78125 528.929688 206.8125 C 533.824219 208.839844 538.667969 210.984375 543.460938 213.253906 C 548.25 215.519531 552.984375 217.898438 557.65625 220.398438 C 562.332031 222.898438 566.941406 225.507812 571.488281 228.234375 C 576.03125 230.957031 580.507812 233.792969 584.914062 236.738281 C 589.324219 239.679688 593.652344 242.730469 597.910156 245.890625 C 602.167969 249.046875 606.34375 252.304688 610.441406 255.667969 C 614.539062 259.03125 618.550781 262.492188 622.476562 266.050781 C 626.40625 269.609375 630.242188 273.261719 633.988281 277.011719 C 637.738281 280.757812 641.390625 284.59375 644.949219 288.523438 C 648.507812 292.449219 651.96875 296.460938 655.332031 300.558594 C 658.695312 304.65625 661.953125 308.832031 665.109375 313.089844 C 668.269531 317.34375 671.320312 321.675781 674.261719 326.085938 C 677.207031 330.492188 680.042969 334.96875 682.765625 339.511719 C 685.492188 344.058594 688.101562 348.667969 690.601562 353.34375 C 693.101562 358.015625 695.480469 362.75 697.746094 367.539062 C 700.015625 372.332031 702.160156 377.175781 704.1875 382.070312 C 706.21875 386.96875 708.125 391.910156 709.910156 396.902344 C 711.695312 401.890625 713.355469 406.921875 714.894531 411.996094 C 716.433594 417.066406 717.847656 422.171875 719.136719 427.3125 C 720.421875 432.453125 721.582031 437.625 722.617188 442.820312 C 723.652344 448.019531 724.558594 453.242188 725.335938 458.484375 C 726.113281 463.726562 726.761719 468.984375 727.28125 474.257812 C 727.800781 479.53125 728.191406 484.816406 728.449219 490.109375 C 728.710938 495.402344 728.839844 500.699219 728.839844 506 Z M 728.839844 506 " fill-opacity="1" fill-rule="nonzero"/></g><path fill="#ffffff" d="M 291.160156 673.046875 L 290.589844 551.035156 C 290.566406 545.679688 281.167969 541.34375 269.617188 541.355469 C 258.070312 541.367188 248.710938 545.722656 248.738281 551.078125 L 249.304688 673.085938 C 249.332031 678.441406 258.730469 682.78125 270.277344 682.769531 C 281.828125 682.757812 291.1875 678.398438 291.160156 673.046875 Z M 291.160156 673.046875 " fill-opacity="1" fill-rule="evenodd"/><path fill="#ffffff" d="M 380.960938 668.183594 L 380.390625 485.167969 C 380.363281 477.136719 370.96875 470.628906 359.417969 470.644531 C 347.867188 470.664062 338.511719 477.199219 338.535156 485.230469 L 339.105469 668.246094 C 339.128906 676.277344 348.527344 682.785156 360.078125 682.769531 C 371.628906 682.75 380.984375 676.214844 380.960938 668.183594 Z M 380.960938 668.183594 " fill-opacity="1" fill-rule="evenodd"/><path fill="#ffffff" d="M 470.757812 663.320312 L 470.1875 419.300781 C 470.164062 408.59375 460.765625 399.914062 449.214844 399.9375 C 437.664062 399.960938 428.308594 408.675781 428.332031 419.386719 L 428.902344 663.40625 C 428.929688 674.117188 438.324219 682.792969 449.875 682.769531 C 461.425781 682.746094 470.78125 674.03125 470.757812 663.320312 Z M 470.757812 663.320312 " fill-opacity="1" fill-rule="evenodd"/><path fill="#ffffff" d="M 560.554688 658.460938 L 559.988281 353.433594 C 559.960938 340.046875 550.5625 329.203125 539.015625 329.230469 C 527.464844 329.261719 518.105469 340.152344 518.132812 353.539062 L 518.703125 658.566406 C 518.726562 671.953125 528.125 682.796875 539.675781 682.769531 C 551.222656 682.738281 560.582031 671.847656 560.554688 658.460938 Z M 560.554688 658.460938 " fill-opacity="1" fill-rule="evenodd"/><g clip-path="url(#8b3f44a48f)"><path fill="#000000" d="M 728.839844 506 C 728.839844 511.300781 728.710938 516.597656 728.449219 521.890625 C 728.191406 527.183594 727.800781 532.46875 727.28125 537.742188 C 726.761719 543.015625 726.113281 548.273438 725.335938 553.515625 C 724.558594 558.757812 723.652344 563.980469 722.617188 569.179688 C 721.582031 574.375 720.421875 579.546875 719.136719 584.6875 C 717.847656 589.828125 716.433594 594.933594 714.894531 600.003906 C 713.355469 605.078125 711.695312 610.109375 709.910156 615.097656 C 708.125 620.089844 706.21875 625.03125 704.1875 629.929688 C 702.160156 634.824219 700.015625 639.667969 697.746094 644.460938 C 695.480469 649.25 693.101562 653.984375 690.601562 658.65625 C 688.101562 663.332031 685.492188 667.941406 682.765625 672.488281 C 680.042969 677.03125 677.207031 681.507812 674.261719 685.914062 C 671.320312 690.324219 668.269531 694.65625 665.109375 698.910156 C 661.953125 703.167969 658.695312 707.34375 655.332031 711.441406 C 651.96875 715.539062 648.507812 719.550781 644.949219 723.476562 C 641.390625 727.40625 637.738281 731.242188 633.988281 734.988281 C 630.242188 738.738281 626.40625 742.390625 622.476562 745.949219 C 618.550781 749.507812 614.539062 752.96875 610.441406 756.332031 C 606.34375 759.695312 602.167969 762.953125 597.910156 766.109375 C 593.652344 769.269531 589.324219 772.320312 584.914062 775.261719 C 580.507812 778.207031 576.03125 781.042969 571.488281 783.765625 C 566.941406 786.492188 562.332031 789.101562 557.65625 791.601562 C 552.984375 794.101562 548.25 796.480469 543.460938 798.746094 C 538.667969 801.015625 533.824219 803.160156 528.929688 805.1875 C 524.03125 807.21875 519.089844 809.125 514.097656 810.910156 C 509.109375 812.695312 504.078125 814.355469 499.003906 815.894531 C 493.933594 817.433594 488.828125 818.847656 483.6875 820.136719 C 478.546875 821.421875 473.375 822.582031 468.179688 823.617188 C 462.980469 824.652344 457.757812 825.558594 452.515625 826.335938 C 447.273438 827.113281 442.015625 827.761719 436.742188 828.28125 C 431.46875 828.800781 426.183594 829.191406 420.890625 829.449219 C 415.597656 829.710938 410.300781 829.839844 405 829.839844 C 399.699219 829.839844 394.402344 829.710938 389.109375 829.449219 C 383.816406 829.191406 378.53125 828.800781 373.257812 828.28125 C 367.984375 827.761719 362.726562 827.113281 357.484375 826.335938 C 352.238281 825.558594 347.019531 824.652344 341.820312 823.617188 C 336.625 822.582031 331.453125 821.421875 326.3125 820.136719 C 321.171875 818.847656 316.066406 817.433594 310.996094 815.894531 C 305.921875 814.355469 300.890625 812.695312 295.902344 810.910156 C 290.910156 809.125 285.96875 807.21875 281.070312 805.1875 C 276.175781 803.160156 271.332031 801.015625 266.539062 798.746094 C 261.75 796.480469 257.015625 794.101562 252.34375 791.601562 C 247.667969 789.101562 243.058594 786.492188 238.511719 783.765625 C 233.96875 781.042969 229.492188 778.207031 225.085938 775.261719 C 220.675781 772.320312 216.34375 769.269531 212.089844 766.109375 C 207.832031 762.953125 203.65625 759.695312 199.558594 756.332031 C 195.460938 752.96875 191.449219 749.507812 187.523438 745.949219 C 183.59375 742.390625 179.757812 738.738281 176.011719 734.988281 C 172.261719 731.242188 168.609375 727.40625 165.050781 723.476562 C 161.492188 719.550781 158.03125 715.539062 154.667969 711.441406 C 151.304688 707.34375 148.046875 703.167969 144.890625 698.910156 C 141.730469 694.65625 138.679688 690.324219 135.738281 685.914062 C 132.792969 681.507812 129.957031 677.03125 127.234375 672.488281 C 124.507812 667.941406 121.898438 663.332031 119.398438 658.65625 C 116.898438 653.984375 114.519531 649.25 112.253906 644.460938 C 109.984375 639.667969 107.839844 634.824219 105.8125 629.929688 C 103.78125 625.03125 101.875 620.089844 100.089844 615.097656 C 98.304688 610.109375 96.644531 605.078125 95.105469 600.003906 C 93.566406 594.933594 92.152344 589.828125 90.863281 584.6875 C 89.578125 579.546875 88.417969 574.375 87.382812 569.179688 C 86.347656 563.980469 85.441406 558.757812 84.664062 553.515625 C 83.886719 548.273438 83.238281 543.015625 82.71875 537.742188 C 82.199219 532.46875 81.808594 527.183594 81.550781 521.890625 C 81.289062 516.597656 81.160156 511.300781 81.160156 506 C 81.160156 500.699219 81.289062 495.402344 81.550781 490.109375 C 81.808594 484.816406 82.199219 479.53125 82.71875 474.257812 C 83.238281 468.984375 83.886719 463.726562 84.664062 458.484375 C 85.441406 453.242188 86.347656 448.019531 87.382812 442.820312 C 88.417969 437.625 89.578125 432.453125 90.863281 427.3125 C 92.152344 422.171875 93.566406 417.066406 95.105469 411.996094 C 96.644531 406.921875 98.304688 401.890625 100.089844 396.902344 C 101.875 391.910156 103.78125 386.96875 105.8125 382.070312 C 107.839844 377.175781 109.984375 372.332031 112.253906 367.539062 C 114.519531 362.75 116.898438 358.015625 119.398438 353.34375 C 121.898438 348.667969 124.507812 344.058594 127.234375 339.511719 C 129.957031 334.96875 132.792969 330.492188 135.738281 326.085938 C 138.679688 321.675781 141.730469 317.34375 144.890625 313.089844 C 148.046875 308.832031 151.304688 304.65625 154.667969 300.558594 C 158.03125 296.460938 161.492188 292.449219 165.050781 288.523438 C 168.609375 284.59375 172.261719 280.757812 176.011719 277.011719 C 179.757812 273.261719 183.59375 269.609375 187.523438 266.050781 C 191.449219 262.492188 195.460938 259.03125 199.558594 255.667969 C 203.65625 252.304688 207.832031 249.046875 212.089844 245.890625 C 216.34375 242.730469 220.675781 239.679688 225.085938 236.738281 C 229.492188 233.792969 233.96875 230.957031 238.511719 228.234375 C 243.058594 225.507812 247.667969 222.898438 252.34375 220.398438 C 257.015625 217.898438 261.75 215.519531 266.539062 213.253906 C 271.332031 210.984375 276.175781 208.839844 281.070312 206.8125 C 285.96875 204.78125 290.910156 202.875 295.902344 201.089844 C 300.890625 199.304688 305.921875 197.644531 310.996094 196.105469 C 316.066406 194.566406 321.171875 193.152344 326.3125 191.863281 C 331.453125 190.578125 336.625 189.417969 341.820312 188.382812 C 347.019531 187.347656 352.238281 186.441406 357.484375 185.664062 C 362.726562 184.886719 367.984375 184.238281 373.257812 183.71875 C 378.53125 183.199219 383.816406 182.808594 389.109375 182.550781 C 394.402344 182.289062 399.699219 182.160156 405 182.160156 C 410.300781 182.160156 415.597656 182.289062 420.890625 182.550781 C 426.183594 182.808594 431.46875 183.199219 436.742188 183.71875 C 442.015625 184.238281 447.273438 184.886719 452.515625 185.664062 C 457.757812 186.441406 462.980469 187.347656 468.179688 188.382812 C 473.375 189.417969 478.546875 190.578125 483.6875 191.863281 C 488.828125 193.152344 493.933594 194.566406 499.003906 196.105469 C 504.078125 197.644531 509.109375 199.304688 514.097656 201.089844 C 519.089844 202.875 524.03125 204.78125 528.929688 206.8125 C 533.824219 208.839844 538.667969 210.984375 543.460938 213.253906 C 548.25 215.519531 552.984375 217.898438 557.65625 220.398438 C 562.332031 222.898438 566.941406 225.507812 571.488281 228.234375 C 576.03125 230.957031 580.507812 233.792969 584.914062 236.738281 C 589.324219 239.679688 593.652344 242.730469 597.910156 245.890625 C 602.167969 249.046875 606.34375 252.304688 610.441406 255.667969 C 614.539062 259.03125 618.550781 262.492188 622.476562 266.050781 C 626.40625 269.609375 630.242188 273.261719 633.988281 277.011719 C 637.738281 280.757812 641.390625 284.59375 644.949219 288.523438 C 648.507812 292.449219 651.96875 296.460938 655.332031 300.558594 C 658.695312 304.65625 661.953125 308.832031 665.109375 313.089844 C 668.269531 317.34375 671.320312 321.675781 674.261719 326.085938 C 677.207031 330.492188 680.042969 334.96875 682.765625 339.511719 C 685.492188 344.058594 688.101562 348.667969 690.601562 353.34375 C 693.101562 358.015625 695.480469 362.75 697.746094 367.539062 C 700.015625 372.332031 702.160156 377.175781 704.1875 382.070312 C 706.21875 386.96875 708.125 391.910156 709.910156 396.902344 C 711.695312 401.890625 713.355469 406.921875 714.894531 411.996094 C 716.433594 417.066406 717.847656 422.171875 719.136719 427.3125 C 720.421875 432.453125 721.582031 437.625 722.617188 442.820312 C 723.652344 448.019531 724.558594 453.242188 725.335938 458.484375 C 726.113281 463.726562 726.761719 468.984375 727.28125 474.257812 C 727.800781 479.53125 728.191406 484.816406 728.449219 490.109375 C 728.710938 495.402344 728.839844 500.699219 728.839844 506 Z M 728.839844 506 " fill-opacity="1" fill-rule="nonzero"/></g><path fill="#ffffff" d="M 291.160156 673.046875 L 290.589844 551.035156 C 290.566406 545.679688 281.167969 541.34375 269.617188 541.355469 C 258.070312 541.367188 248.710938 545.722656 248.738281 551.078125 L 249.304688 673.085938 C 249.332031 678.441406 258.730469 682.78125 270.277344 682.769531 C 281.828125 682.757812 291.1875 678.398438 291.160156 673.046875 Z M 291.160156 673.046875 " fill-opacity="1" fill-rule="evenodd"/><path fill="#ffffff" d="M 380.960938 668.183594 L 380.390625 485.167969 C 380.363281 477.136719 370.96875 470.628906 359.417969 470.644531 C 347.867188 470.664062 338.511719 477.199219 338.535156 485.230469 L 339.105469 668.246094 C 339.128906 676.277344 348.527344 682.785156 360.078125 682.769531 C 371.628906 682.75 380.984375 676.214844 380.960938 668.183594 Z M 380.960938 668.183594 " fill-opacity="1" fill-rule="evenodd"/><path fill="#ffffff" d="M 470.757812 663.320312 L 470.1875 419.300781 C 470.164062 408.59375 460.765625 399.914062 449.214844 399.9375 C 437.664062 399.960938 428.308594 408.675781 428.332031 419.386719 L 428.902344 663.40625 C 428.929688 674.117188 438.324219 682.792969 449.875 682.769531 C 461.425781 682.746094 470.78125 674.03125 470.757812 663.320312 Z M 470.757812 663.320312 " fill-opacity="1" fill-rule="evenodd"/><path fill="#ffffff" d="M 560.554688 658.460938 L 559.988281 353.433594 C 559.960938 340.046875 550.5625 329.203125 539.015625 329.230469 C 527.464844 329.261719 518.105469 340.152344 518.132812 353.539062 L 518.703125 658.566406 C 518.726562 671.953125 528.125 682.796875 539.675781 682.769531 C 551.222656 682.738281 560.582031 671.847656 560.554688 658.460938 Z M 560.554688 658.460938 " fill-opacity="1" fill-rule="evenodd"/></svg>