<svg xmlns="http://www.w3.org/2000/svg" xmlns:xlink="http://www.w3.org/1999/xlink" width="1080" zoomAndPan="magnify" viewBox="0 0 810 1012.49997" height="1350" preserveAspectRatio="xMidYMid meet" version="1.0"><defs><clipPath id="fc27d681a7"><path d="M 81.160156 182.160156 L 728.839844 182.160156 L 728.839844 829.839844 L 81.160156 829.839844 Z M 81.160156 182.160156 " clip-rule="nonzero"/></clipPath></defs><g clip-path="url(#fc27d681a7)"><path fill="#000000" d="M 405 182.160156 C 399.699219 182.160156 394.402344 182.289062 389.109375 182.550781 C 383.816406 182.808594 378.53125 183.199219 373.257812 183.71875 C 367.984375 184.238281 362.726562 184.886719 357.484375 185.664062 C 352.242188 186.441406 347.019531 187.347656 341.820312 188.382812 C 336.625 189.417969 331.453125 190.578125 326.3125 191.863281 C 321.171875 193.152344 316.066406 194.566406 310.996094 196.105469 C 305.921875 197.644531 300.890625 199.304688 295.902344 201.089844 C 290.910156 202.875 285.96875 204.78125 281.070312 206.8125 C 276.175781 208.839844 271.332031 210.984375 266.539062 213.253906 C 261.75 215.519531 257.015625 217.898438 252.34375 220.398438 C 247.667969 222.898438 243.058594 225.507812 238.511719 228.234375 C 233.96875 230.957031 229.492188 233.792969 225.085938 236.738281 C 220.675781 239.679688 216.34375 242.730469 212.089844 245.890625 C 207.832031 249.046875 203.65625 252.304688 199.558594 255.667969 C 195.460938 259.03125 191.449219 262.492188 187.523438 266.050781 C 183.59375 269.609375 179.757812 273.261719 176.011719 277.011719 C 172.261719 280.757812 168.609375 284.59375 165.050781 288.523438 C 161.492188 292.449219 158.03125 296.460938 154.667969 300.558594 C 151.304688 304.65625 148.046875 308.832031 144.890625 313.089844 C 141.730469 317.34375 138.679688 321.675781 135.738281 326.085938 C 132.792969 330.492188 129.957031 334.96875 127.234375 339.511719 C 124.507812 344.058594 121.898438 348.667969 119.398438 353.34375 C 116.898438 358.015625 114.519531 362.75 112.253906 367.539062 C 109.984375 372.332031 107.839844 377.175781 105.8125 382.070312 C 103.78125 386.96875 101.875 391.910156 100.089844 396.902344 C 98.304688 401.890625 96.644531 406.921875 95.105469 411.996094 C 93.566406 417.066406 92.152344 422.171875 90.863281 427.3125 C 89.578125 432.453125 88.417969 437.625 87.382812 442.820312 C 86.347656 448.019531 85.441406 453.242188 84.664062 458.484375 C 83.886719 463.726562 83.238281 468.984375 82.71875 474.257812 C 82.199219 479.53125 81.808594 484.816406 81.550781 490.109375 C 81.289062 495.402344 81.160156 500.699219 81.160156 506 C 81.160156 511.300781 81.289062 516.597656 81.550781 521.890625 C 81.808594 527.183594 82.199219 532.46875 82.71875 537.742188 C 83.238281 543.015625 83.886719 548.273438 84.664062 553.515625 C 85.441406 558.761719 86.347656 563.980469 87.382812 569.179688 C 88.417969 574.375 89.578125 579.546875 90.863281 584.6875 C 92.152344 589.828125 93.566406 594.933594 95.105469 600.003906 C 96.644531 605.078125 98.304688 610.109375 100.089844 615.097656 C 101.875 620.089844 103.78125 625.03125 105.8125 629.929688 C 107.839844 634.824219 109.984375 639.667969 112.253906 644.460938 C 114.519531 649.25 116.898438 653.984375 119.398438 658.65625 C 121.898438 663.332031 124.507812 667.941406 127.234375 672.488281 C 129.957031 677.03125 132.792969 681.507812 135.738281 685.914062 C 138.679688 690.324219 141.730469 694.65625 144.890625 698.910156 C 148.046875 703.167969 151.304688 707.34375 154.667969 711.441406 C 158.03125 715.539062 161.492188 719.550781 165.050781 723.476562 C 168.609375 727.40625 172.261719 731.242188 176.011719 734.988281 C 179.757812 738.738281 183.59375 742.390625 187.523438 745.949219 C 191.449219 749.507812 195.460938 752.96875 199.558594 756.332031 C 203.65625 759.695312 207.832031 762.953125 212.089844 766.109375 C 216.34375 769.269531 220.675781 772.320312 225.085938 775.261719 C 229.492188 778.207031 233.96875 781.042969 238.511719 783.765625 C 243.058594 786.492188 247.667969 789.101562 252.34375 791.601562 C 257.015625 794.101562 261.75 796.480469 266.539062 798.746094 C 271.332031 801.015625 276.175781 803.160156 281.070312 805.1875 C 285.96875 807.21875 290.910156 809.125 295.902344 810.910156 C 300.890625 812.695312 305.921875 814.355469 310.996094 815.894531 C 316.066406 817.433594 321.171875 818.847656 326.3125 820.136719 C 331.453125 821.421875 336.625 822.582031 341.820312 823.617188 C 347.019531 824.652344 352.242188 825.558594 357.484375 826.335938 C 362.726562 827.113281 367.984375 827.761719 373.257812 828.28125 C 378.53125 828.800781 383.816406 829.191406 389.109375 829.449219 C 394.402344 829.710938 399.699219 829.839844 405 829.839844 C 410.300781 829.839844 415.597656 829.710938 420.890625 829.449219 C 426.183594 829.191406 431.46875 828.800781 436.742188 828.28125 C 442.015625 827.761719 447.273438 827.113281 452.515625 826.335938 C 457.757812 825.558594 462.980469 824.652344 468.179688 823.617188 C 473.375 822.582031 478.546875 821.421875 483.6875 820.136719 C 488.828125 818.847656 493.933594 817.433594 499.003906 815.894531 C 504.078125 814.355469 509.109375 812.695312 514.097656 810.910156 C 519.089844 809.125 524.03125 807.21875 528.929688 805.1875 C 533.824219 803.160156 538.667969 801.015625 543.460938 798.746094 C 548.25 796.480469 552.984375 794.101562 557.65625 791.601562 C 562.332031 789.101562 566.941406 786.492188 571.488281 783.765625 C 576.03125 781.042969 580.507812 778.207031 584.914062 775.261719 C 589.324219 772.320312 593.652344 769.269531 597.910156 766.109375 C 602.167969 762.953125 606.34375 759.695312 610.441406 756.332031 C 614.539062 752.96875 618.550781 749.507812 622.476562 745.949219 C 626.40625 742.390625 630.242188 738.738281 633.988281 734.988281 C 637.738281 731.242188 641.390625 727.40625 644.949219 723.476562 C 648.507812 719.550781 651.96875 715.539062 655.332031 711.441406 C 658.695312 707.34375 661.953125 703.167969 665.109375 698.910156 C 668.269531 694.65625 671.320312 690.324219 674.261719 685.914062 C 677.207031 681.507812 680.042969 677.03125 682.765625 672.488281 C 685.492188 667.941406 688.101562 663.332031 690.601562 658.65625 C 693.101562 653.984375 695.480469 649.25 697.746094 644.460938 C 700.015625 639.667969 702.160156 634.824219 704.1875 629.929688 C 706.21875 625.03125 708.125 620.089844 709.910156 615.097656 C 711.695312 610.109375 713.355469 605.078125 714.894531 600.003906 C 716.433594 594.933594 717.847656 589.828125 719.136719 584.6875 C 720.421875 579.546875 721.582031 574.375 722.617188 569.179688 C 723.652344 563.980469 724.558594 558.761719 725.335938 553.515625 C 726.113281 548.273438 726.761719 543.015625 727.28125 537.742188 C 727.800781 532.46875 728.191406 527.183594 728.449219 521.890625 C 728.710938 516.597656 728.839844 511.300781 728.839844 506 C 728.832031 500.703125 728.699219 495.40625 728.433594 490.117188 C 728.167969 484.824219 727.769531 479.542969 727.246094 474.269531 C 726.722656 468.996094 726.066406 463.742188 725.285156 458.5 C 724.503906 453.261719 723.59375 448.042969 722.554688 442.847656 C 721.515625 437.652344 720.351562 432.484375 719.058594 427.347656 C 717.769531 422.210938 716.351562 417.105469 714.808594 412.035156 C 713.269531 406.96875 711.601562 401.941406 709.816406 396.953125 C 708.027344 391.964844 706.117188 387.023438 704.085938 382.132812 C 702.054688 377.238281 699.90625 372.398438 697.640625 367.609375 C 695.371094 362.820312 692.988281 358.089844 690.488281 353.417969 C 687.988281 348.746094 685.375 344.140625 682.652344 339.597656 C 679.925781 335.054688 677.089844 330.578125 674.144531 326.175781 C 671.199219 321.769531 668.148438 317.441406 664.992188 313.1875 C 661.835938 308.929688 658.578125 304.757812 655.214844 300.660156 C 651.851562 296.566406 648.394531 292.554688 644.835938 288.628906 C 641.277344 284.703125 637.625 280.867188 633.878906 277.121094 C 630.132812 273.375 626.296875 269.722656 622.371094 266.164062 C 618.445312 262.605469 614.433594 259.148438 610.339844 255.785156 C 606.242188 252.421875 602.070312 249.164062 597.8125 246.007812 C 593.558594 242.851562 589.230469 239.800781 584.824219 236.855469 C 580.421875 233.910156 575.945312 231.074219 571.402344 228.347656 C 566.859375 225.625 562.253906 223.011719 557.582031 220.511719 C 552.910156 218.011719 548.179688 215.628906 543.390625 213.359375 C 538.601562 211.09375 533.761719 208.945312 528.867188 206.914062 C 523.976562 204.882812 519.035156 202.972656 514.046875 201.183594 C 509.058594 199.398438 504.03125 197.730469 498.964844 196.191406 C 493.894531 194.648438 488.789062 193.230469 483.652344 191.941406 C 478.515625 190.648438 473.347656 189.484375 468.152344 188.445312 C 462.957031 187.40625 457.738281 186.496094 452.5 185.714844 C 447.257812 184.933594 442.003906 184.277344 436.730469 183.753906 C 431.457031 183.230469 426.175781 182.832031 420.882812 182.566406 C 415.59375 182.300781 410.296875 182.167969 405 182.160156 Z M 514.132812 615.132812 C 513.453125 615.816406 512.738281 616.460938 511.992188 617.074219 C 511.25 617.683594 510.476562 618.257812 509.671875 618.792969 C 508.871094 619.328125 508.046875 619.824219 507.195312 620.277344 C 506.34375 620.734375 505.476562 621.144531 504.585938 621.515625 C 503.695312 621.882812 502.785156 622.207031 501.863281 622.488281 C 500.941406 622.765625 500.007812 623 499.0625 623.1875 C 498.117188 623.375 497.164062 623.519531 496.207031 623.613281 C 495.246094 623.707031 494.285156 623.753906 493.320312 623.753906 C 492.355469 623.753906 491.394531 623.707031 490.433594 623.613281 C 489.476562 623.519531 488.523438 623.375 487.578125 623.1875 C 486.632812 623 485.699219 622.765625 484.777344 622.488281 C 483.851562 622.207031 482.945312 621.882812 482.054688 621.515625 C 481.164062 621.144531 480.292969 620.734375 479.445312 620.277344 C 478.59375 619.824219 477.769531 619.328125 476.964844 618.792969 C 476.164062 618.257812 475.390625 617.683594 474.644531 617.074219 C 473.902344 616.460938 473.1875 615.816406 472.507812 615.132812 L 384.1875 526.8125 C 382.820312 525.449219 381.597656 523.960938 380.523438 522.355469 C 379.449219 520.746094 378.542969 519.050781 377.804688 517.265625 C 377.0625 515.480469 376.503906 513.636719 376.125 511.742188 C 375.75 509.847656 375.558594 507.933594 375.558594 506 L 375.558594 329.359375 C 375.558594 328.394531 375.605469 327.433594 375.703125 326.472656 C 375.796875 325.515625 375.9375 324.5625 376.125 323.617188 C 376.3125 322.671875 376.546875 321.738281 376.828125 320.8125 C 377.109375 319.890625 377.433594 318.984375 377.800781 318.09375 C 378.167969 317.203125 378.582031 316.332031 379.035156 315.480469 C 379.492188 314.632812 379.984375 313.804688 380.519531 313.003906 C 381.058594 312.203125 381.628906 311.429688 382.242188 310.683594 C 382.855469 309.9375 383.5 309.222656 384.183594 308.542969 C 384.863281 307.859375 385.578125 307.214844 386.324219 306.601562 C 387.070312 305.992188 387.84375 305.417969 388.644531 304.882812 C 389.445312 304.347656 390.273438 303.851562 391.121094 303.394531 C 391.972656 302.941406 392.84375 302.53125 393.734375 302.160156 C 394.625 301.792969 395.53125 301.46875 396.453125 301.1875 C 397.375 300.90625 398.3125 300.675781 399.257812 300.484375 C 400.203125 300.296875 401.15625 300.15625 402.113281 300.0625 C 403.074219 299.96875 404.035156 299.921875 405 299.921875 C 405.964844 299.921875 406.925781 299.96875 407.886719 300.0625 C 408.84375 300.15625 409.796875 300.296875 410.742188 300.484375 C 411.6875 300.675781 412.625 300.90625 413.546875 301.1875 C 414.46875 301.46875 415.375 301.792969 416.265625 302.160156 C 417.15625 302.53125 418.027344 302.941406 418.878906 303.394531 C 419.726562 303.851562 420.554688 304.347656 421.355469 304.882812 C 422.15625 305.417969 422.929688 305.992188 423.675781 306.601562 C 424.421875 307.214844 425.136719 307.859375 425.816406 308.542969 C 426.5 309.222656 427.144531 309.9375 427.757812 310.683594 C 428.367188 311.429688 428.941406 312.203125 429.476562 313.003906 C 430.015625 313.804688 430.507812 314.632812 430.964844 315.480469 C 431.417969 316.332031 431.828125 317.203125 432.199219 318.09375 C 432.566406 318.984375 432.890625 319.890625 433.171875 320.8125 C 433.453125 321.738281 433.6875 322.671875 433.875 323.617188 C 434.0625 324.5625 434.203125 325.515625 434.296875 326.472656 C 434.394531 327.433594 434.441406 328.394531 434.441406 329.359375 L 434.441406 493.8125 L 514.132812 573.507812 C 514.816406 574.1875 515.460938 574.902344 516.074219 575.648438 C 516.683594 576.390625 517.257812 577.164062 517.792969 577.96875 C 518.328125 578.769531 518.824219 579.59375 519.277344 580.445312 C 519.734375 581.292969 520.144531 582.164062 520.511719 583.054688 C 520.882812 583.945312 521.207031 584.851562 521.488281 585.777344 C 521.765625 586.699219 522 587.632812 522.1875 588.578125 C 522.375 589.523438 522.515625 590.476562 522.613281 591.433594 C 522.707031 592.394531 522.753906 593.355469 522.753906 594.320312 C 522.753906 595.285156 522.707031 596.246094 522.613281 597.207031 C 522.515625 598.164062 522.375 599.117188 522.1875 600.0625 C 522 601.007812 521.765625 601.941406 521.488281 602.863281 C 521.207031 603.785156 520.882812 604.695312 520.511719 605.585938 C 520.144531 606.476562 519.734375 607.34375 519.277344 608.195312 C 518.824219 609.046875 518.328125 609.871094 517.792969 610.671875 C 517.257812 611.476562 516.683594 612.25 516.074219 612.992188 C 515.460938 613.738281 514.816406 614.453125 514.132812 615.132812 Z M 514.132812 615.132812 " fill-opacity="1" fill-rule="nonzero"/><path fill="#000000" d="M 405 182.160156 C 399.699219 182.160156 394.402344 182.289062 389.109375 182.550781 C 383.816406 182.808594 378.53125 183.199219 373.257812 183.71875 C 367.984375 184.238281 362.726562 184.886719 357.484375 185.664062 C 352.242188 186.441406 347.019531 187.347656 341.820312 188.382812 C 336.625 189.417969 331.453125 190.578125 326.3125 191.863281 C 321.171875 193.152344 316.066406 194.566406 310.996094 196.105469 C 305.921875 197.644531 300.890625 199.304688 295.902344 201.089844 C 290.910156 202.875 285.96875 204.78125 281.070312 206.8125 C 276.175781 208.839844 271.332031 210.984375 266.539062 213.253906 C 261.75 215.519531 257.015625 217.898438 252.34375 220.398438 C 247.667969 222.898438 243.058594 225.507812 238.511719 228.234375 C 233.96875 230.957031 229.492188 233.792969 225.085938 236.738281 C 220.675781 239.679688 216.34375 242.730469 212.089844 245.890625 C 207.832031 249.046875 203.65625 252.304688 199.558594 255.667969 C 195.460938 259.03125 191.449219 262.492188 187.523438 266.050781 C 183.59375 269.609375 179.757812 273.261719 176.011719 277.011719 C 172.261719 280.757812 168.609375 284.59375 165.050781 288.523438 C 161.492188 292.449219 158.03125 296.460938 154.667969 300.558594 C 151.304688 304.65625 148.046875 308.832031 144.890625 313.089844 C 141.730469 317.34375 138.679688 321.675781 135.738281 326.085938 C 132.792969 330.492188 129.957031 334.96875 127.234375 339.511719 C 124.507812 344.058594 121.898438 348.667969 119.398438 353.34375 C 116.898438 358.015625 114.519531 362.75 112.253906 367.539062 C 109.984375 372.332031 107.839844 377.175781 105.8125 382.070312 C 103.78125 386.96875 101.875 391.910156 100.089844 396.902344 C 98.304688 401.890625 96.644531 406.921875 95.105469 411.996094 C 93.566406 417.066406 92.152344 422.171875 90.863281 427.3125 C 89.578125 432.453125 88.417969 437.625 87.382812 442.820312 C 86.347656 448.019531 85.441406 453.242188 84.664062 458.484375 C 83.886719 463.726562 83.238281 468.984375 82.71875 474.257812 C 82.199219 479.53125 81.808594 484.816406 81.550781 490.109375 C 81.289062 495.402344 81.160156 500.699219 81.160156 506 C 81.160156 511.300781 81.289062 516.597656 81.550781 521.890625 C 81.808594 527.183594 82.199219 532.46875 82.71875 537.742188 C 83.238281 543.015625 83.886719 548.273438 84.664062 553.515625 C 85.441406 558.761719 86.347656 563.980469 87.382812 569.179688 C 88.417969 574.375 89.578125 579.546875 90.863281 584.6875 C 92.152344 589.828125 93.566406 594.933594 95.105469 600.003906 C 96.644531 605.078125 98.304688 610.109375 100.089844 615.097656 C 101.875 620.089844 103.78125 625.03125 105.8125 629.929688 C 107.839844 634.824219 109.984375 639.667969 112.253906 644.460938 C 114.519531 649.25 116.898438 653.984375 119.398438 658.65625 C 121.898438 663.332031 124.507812 667.941406 127.234375 672.488281 C 129.957031 677.03125 132.792969 681.507812 135.738281 685.914062 C 138.679688 690.324219 141.730469 694.65625 144.890625 698.910156 C 148.046875 703.167969 151.304688 707.34375 154.667969 711.441406 C 158.03125 715.539062 161.492188 719.550781 165.050781 723.476562 C 168.609375 727.40625 172.261719 731.242188 176.011719 734.988281 C 179.757812 738.738281 183.59375 742.390625 187.523438 745.949219 C 191.449219 749.507812 195.460938 752.96875 199.558594 756.332031 C 203.65625 759.695312 207.832031 762.953125 212.089844 766.109375 C 216.34375 769.269531 220.675781 772.320312 225.085938 775.261719 C 229.492188 778.207031 233.96875 781.042969 238.511719 783.765625 C 243.058594 786.492188 247.667969 789.101562 252.34375 791.601562 C 257.015625 794.101562 261.75 796.480469 266.539062 798.746094 C 271.332031 801.015625 276.175781 803.160156 281.070312 805.1875 C 285.96875 807.21875 290.910156 809.125 295.902344 810.910156 C 300.890625 812.695312 305.921875 814.355469 310.996094 815.894531 C 316.066406 817.433594 321.171875 818.847656 326.3125 820.136719 C 331.453125 821.421875 336.625 822.582031 341.820312 823.617188 C 347.019531 824.652344 352.242188 825.558594 357.484375 826.335938 C 362.726562 827.113281 367.984375 827.761719 373.257812 828.28125 C 378.53125 828.800781 383.816406 829.191406 389.109375 829.449219 C 394.402344 829.710938 399.699219 829.839844 405 829.839844 C 410.300781 829.839844 415.597656 829.710938 420.890625 829.449219 C 426.183594 829.191406 431.46875 828.800781 436.742188 828.28125 C 442.015625 827.761719 447.273438 827.113281 452.515625 826.335938 C 457.757812 825.558594 462.980469 824.652344 468.179688 823.617188 C 473.375 822.582031 478.546875 821.421875 483.6875 820.136719 C 488.828125 818.847656 493.933594 817.433594 499.003906 815.894531 C 504.078125 814.355469 509.109375 812.695312 514.097656 810.910156 C 519.089844 809.125 524.03125 807.21875 528.929688 805.1875 C 533.824219 803.160156 538.667969 801.015625 543.460938 798.746094 C 548.25 796.480469 552.984375 794.101562 557.65625 791.601562 C 562.332031 789.101562 566.941406 786.492188 571.488281 783.765625 C 576.03125 781.042969 580.507812 778.207031 584.914062 775.261719 C 589.324219 772.320312 593.652344 769.269531 597.910156 766.109375 C 602.167969 762.953125 606.34375 759.695312 610.441406 756.332031 C 614.539062 752.96875 618.550781 749.507812 622.476562 745.949219 C 626.40625 742.390625 630.242188 738.738281 633.988281 734.988281 C 637.738281 731.242188 641.390625 727.40625 644.949219 723.476562 C 648.507812 719.550781 651.96875 715.539062 655.332031 711.441406 C 658.695312 707.34375 661.953125 703.167969 665.109375 698.910156 C 668.269531 694.65625 671.320312 690.324219 674.261719 685.914062 C 677.207031 681.507812 680.042969 677.03125 682.765625 672.488281 C 685.492188 667.941406 688.101562 663.332031 690.601562 658.65625 C 693.101562 653.984375 695.480469 649.25 697.746094 644.460938 C 700.015625 639.667969 702.160156 634.824219 704.1875 629.929688 C 706.21875 625.03125 708.125 620.089844 709.910156 615.097656 C 711.695312 610.109375 713.355469 605.078125 714.894531 600.003906 C 716.433594 594.933594 717.847656 589.828125 719.136719 584.6875 C 720.421875 579.546875 721.582031 574.375 722.617188 569.179688 C 723.652344 563.980469 724.558594 558.761719 725.335938 553.515625 C 726.113281 548.273438 726.761719 543.015625 727.28125 537.742188 C 727.800781 532.46875 728.191406 527.183594 728.449219 521.890625 C 728.710938 516.597656 728.839844 511.300781 728.839844 506 C 728.832031 500.703125 728.699219 495.40625 728.433594 490.117188 C 728.167969 484.824219 727.769531 479.542969 727.246094 474.269531 C 726.722656 468.996094 726.066406 463.742188 725.285156 458.5 C 724.503906 453.261719 723.59375 448.042969 722.554688 442.847656 C 721.515625 437.652344 720.351562 432.484375 719.058594 427.347656 C 717.769531 422.210938 716.351562 417.105469 714.808594 412.035156 C 713.269531 406.96875 711.601562 401.941406 709.816406 396.953125 C 708.027344 391.964844 706.117188 387.023438 704.085938 382.132812 C 702.054688 377.238281 699.90625 372.398438 697.640625 367.609375 C 695.371094 362.820312 692.988281 358.089844 690.488281 353.417969 C 687.988281 348.746094 685.375 344.140625 682.652344 339.597656 C 679.925781 335.054688 677.089844 330.578125 674.144531 326.175781 C 671.199219 321.769531 668.148438 317.441406 664.992188 313.1875 C 661.835938 308.929688 658.578125 304.757812 655.214844 300.660156 C 651.851562 296.566406 648.394531 292.554688 644.835938 288.628906 C 641.277344 284.703125 637.625 280.867188 633.878906 277.121094 C 630.132812 273.375 626.296875 269.722656 622.371094 266.164062 C 618.445312 262.605469 614.433594 259.148438 610.339844 255.785156 C 606.242188 252.421875 602.070312 249.164062 597.8125 246.007812 C 593.558594 242.851562 589.230469 239.800781 584.824219 236.855469 C 580.421875 233.910156 575.945312 231.074219 571.402344 228.347656 C 566.859375 225.625 562.253906 223.011719 557.582031 220.511719 C 552.910156 218.011719 548.179688 215.628906 543.390625 213.359375 C 538.601562 211.09375 533.761719 208.945312 528.867188 206.914062 C 523.976562 204.882812 519.035156 202.972656 514.046875 201.183594 C 509.058594 199.398438 504.03125 197.730469 498.964844 196.191406 C 493.894531 194.648438 488.789062 193.230469 483.652344 191.941406 C 478.515625 190.648438 473.347656 189.484375 468.152344 188.445312 C 462.957031 187.40625 457.738281 186.496094 452.5 185.714844 C 447.257812 184.933594 442.003906 184.277344 436.730469 183.753906 C 431.457031 183.230469 426.175781 182.832031 420.882812 182.566406 C 415.59375 182.300781 410.296875 182.167969 405 182.160156 Z M 514.132812 615.132812 C 513.453125 615.816406 512.738281 616.460938 511.992188 617.074219 C 511.25 617.683594 510.476562 618.257812 509.671875 618.792969 C 508.871094 619.328125 508.046875 619.824219 507.195312 620.277344 C 506.34375 620.734375 505.476562 621.144531 504.585938 621.515625 C 503.695312 621.882812 502.785156 622.207031 501.863281 622.488281 C 500.941406 622.765625 500.007812 623 499.0625 623.1875 C 498.117188 623.375 497.164062 623.519531 496.207031 623.613281 C 495.246094 623.707031 494.285156 623.753906 493.320312 623.753906 C 492.355469 623.753906 491.394531 623.707031 490.433594 623.613281 C 489.476562 623.519531 488.523438 623.375 487.578125 623.1875 C 486.632812 623 485.699219 622.765625 484.777344 622.488281 C 483.851562 622.207031 482.945312 621.882812 482.054688 621.515625 C 481.164062 621.144531 480.292969 620.734375 479.445312 620.277344 C 478.59375 619.824219 477.769531 619.328125 476.964844 618.792969 C 476.164062 618.257812 475.390625 617.683594 474.644531 617.074219 C 473.902344 616.460938 473.1875 615.816406 472.507812 615.132812 L 384.1875 526.8125 C 382.820312 525.449219 381.597656 523.960938 380.523438 522.355469 C 379.449219 520.746094 378.542969 519.050781 377.804688 517.265625 C 377.0625 515.480469 376.503906 513.636719 376.125 511.742188 C 375.75 509.847656 375.558594 507.933594 375.558594 506 L 375.558594 329.359375 C 375.558594 328.394531 375.605469 327.433594 375.703125 326.472656 C 375.796875 325.515625 375.9375 324.5625 376.125 323.617188 C 376.3125 322.671875 376.546875 321.738281 376.828125 320.8125 C 377.109375 319.890625 377.433594 318.984375 377.800781 318.09375 C 378.167969 317.203125 378.582031 316.332031 379.035156 315.480469 C 379.492188 314.632812 379.984375 313.804688 380.519531 313.003906 C 381.058594 312.203125 381.628906 311.429688 382.242188 310.683594 C 382.855469 309.9375 383.5 309.222656 384.183594 308.542969 C 384.863281 307.859375 385.578125 307.214844 386.324219 306.601562 C 387.070312 305.992188 387.84375 305.417969 388.644531 304.882812 C 389.445312 304.347656 390.273438 303.851562 391.121094 303.394531 C 391.972656 302.941406 392.84375 302.53125 393.734375 302.160156 C 394.625 301.792969 395.53125 301.46875 396.453125 301.1875 C 397.375 300.90625 398.3125 300.675781 399.257812 300.484375 C 400.203125 300.296875 401.15625 300.15625 402.113281 300.0625 C 403.074219 299.96875 404.035156 299.921875 405 299.921875 C 405.964844 299.921875 406.925781 299.96875 407.886719 300.0625 C 408.84375 300.15625 409.796875 300.296875 410.742188 300.484375 C 411.6875 300.675781 412.625 300.90625 413.546875 301.1875 C 414.46875 301.46875 415.375 301.792969 416.265625 302.160156 C 417.15625 302.53125 418.027344 302.941406 418.878906 303.394531 C 419.726562 303.851562 420.554688 304.347656 421.355469 304.882812 C 422.15625 305.417969 422.929688 305.992188 423.675781 306.601562 C 424.421875 307.214844 425.136719 307.859375 425.816406 308.542969 C 426.5 309.222656 427.144531 309.9375 427.757812 310.683594 C 428.367188 311.429688 428.941406 312.203125 429.476562 313.003906 C 430.015625 313.804688 430.507812 314.632812 430.964844 315.480469 C 431.417969 316.332031 431.828125 317.203125 432.199219 318.09375 C 432.566406 318.984375 432.890625 319.890625 433.171875 320.8125 C 433.453125 321.738281 433.6875 322.671875 433.875 323.617188 C 434.0625 324.5625 434.203125 325.515625 434.296875 326.472656 C 434.394531 327.433594 434.441406 328.394531 434.441406 329.359375 L 434.441406 493.8125 L 514.132812 573.507812 C 514.816406 574.1875 515.460938 574.902344 516.074219 575.648438 C 516.683594 576.390625 517.257812 577.164062 517.792969 577.96875 C 518.328125 578.769531 518.824219 579.59375 519.277344 580.445312 C 519.734375 581.292969 520.144531 582.164062 520.511719 583.054688 C 520.882812 583.945312 521.207031 584.851562 521.488281 585.777344 C 521.765625 586.699219 522 587.632812 522.1875 588.578125 C 522.375 589.523438 522.515625 590.476562 522.613281 591.433594 C 522.707031 592.394531 522.753906 593.355469 522.753906 594.320312 C 522.753906 595.285156 522.707031 596.246094 522.613281 597.207031 C 522.515625 598.164062 522.375 599.117188 522.1875 600.0625 C 522 601.007812 521.765625 601.941406 521.488281 602.863281 C 521.207031 603.785156 520.882812 604.695312 520.511719 605.585938 C 520.144531 606.476562 519.734375 607.34375 519.277344 608.195312 C 518.824219 609.046875 518.328125 609.871094 517.792969 610.671875 C 517.257812 611.476562 516.683594 612.25 516.074219 612.992188 C 515.460938 613.738281 514.816406 614.453125 514.132812 615.132812 Z M 514.132812 615.132812 " fill-opacity="1" fill-rule="nonzero"/></g></svg>